<svg height="384.333" viewBox="0 0 586.249 384.333" width="586.249" xmlns="http://www.w3.org/2000/svg"><text transform="translate(142.464 44.667)"><tspan fill="#656565" font-family="Avenir-Medium" font-size="28" x="-83.79" y="-16.667">Conventional </tspan><tspan fill="#656565" font-family="Avenir-Medium" font-size="28" x="-76.244" y="21.333">current flow</tspan></text><text transform="translate(467.463 62)"><tspan fill="#656565" font-family="Avenir-Medium" font-size="28" x="-83.51" y=".667">Electron flow</tspan></text><path d="m27.459 173.44h49.233v16.928h-49.233z" fill="#fffdfd"/><path d="m9.5 172.012h85.797" fill="none" stroke="#000" stroke-width="5"/><path d="m31.268 193.428h42.616" fill="none" stroke="#000" stroke-width="12"/><text transform="translate(92.011 157.845)"><tspan font-family="ArialMT" font-size="19" x="-5.548" y="6">+</tspan></text><path d="m27.459 246.44h49.233v16.928h-49.233z" fill="#fffdfd"/><path d="m9.5 245.012h85.797" fill="none" stroke="#000" stroke-width="5"/><path d="m31.268 266.428h42.616" fill="none" stroke="#000" stroke-width="12"/><text transform="translate(90.293 272.761)"><tspan font-family="ArialMT" font-size="23" x="-3.83" y="7.5">-</tspan></text><path d="m45.398 199.105h13v42.875h-13z" fill="#fffdfd"/><path d="m52.059 193.428v51.584" fill="none" stroke="#000" stroke-dasharray="6 4" stroke-width="2"/><path d="m52.964 169.833v-80" fill="none" stroke="#000" stroke-width="3"/><path d="m52.964 89.833h180" fill="none" stroke="#000" stroke-width="3"/><path d="m232.964 89.833v290" fill="none" stroke="#000" stroke-width="3"/><path d="m232.964 379.833h-180" fill="none" stroke="#000" stroke-width="3"/><path d="m52.964 379.833v-108" fill="none" stroke="#000" stroke-width="3"/><path d="m221.837 181.684h22.255v70.739h-22.255z" fill="#fff"/><path d="m221.837 181.684h22.255v70.739h-22.255z" fill="none" stroke="#000" stroke-width="2"/><path d="m352.459 173.44h49.232v16.928h-49.232z" fill="#fffdfd"/><path d="m334.499 172.012h85.797" fill="none" stroke="#000" stroke-width="5"/><path d="m356.267 193.428h42.616" fill="none" stroke="#000" stroke-width="12"/><text transform="translate(417.011 157.845)"><tspan font-family="ArialMT" font-size="19" x="-5.548" y="6">+</tspan></text><path d="m352.459 246.44h49.232v16.928h-49.232z" fill="#fffdfd"/><path d="m334.499 245.012h85.797" fill="none" stroke="#000" stroke-width="5"/><path d="m356.267 266.428h42.616" fill="none" stroke="#000" stroke-width="12"/><text transform="translate(415.293 272.761)"><tspan font-family="ArialMT" font-size="23" x="-3.83" y="7.5">-</tspan></text><path d="m370.398 199.105h13v42.875h-13z" fill="#fffdfd"/><path d="m377.059 193.428v51.584" fill="none" stroke="#000" stroke-dasharray="6 4" stroke-width="2"/><path d="m377.963 169.833v-80" fill="none" stroke="#000" stroke-width="3"/><path d="m377.963 89.833h180" fill="none" stroke="#000" stroke-width="3"/><path d="m557.963 89.833v290" fill="none" stroke="#000" stroke-width="3"/><path d="m557.963 379.833h-180" fill="none" stroke="#000" stroke-width="3"/><path d="m377.963 379.833v-108" fill="none" stroke="#000" stroke-width="3"/><path d="m546.836 181.684h22.255v70.739h-22.255z" fill="#fff"/><path d="m546.836 181.684h22.255v70.739h-22.255z" fill="none" stroke="#000" stroke-width="2"/><g stroke-width="3"><path d="m89.298 89.833h.4" fill="none" stroke="#c72224"/><path d="m89.698 94.033 11.2-4.2-11.2-4.2z" fill="#c72224" stroke="#c72224"/><path d="m181.964 89.833h.4" fill="none" stroke="#c72224"/><path d="m182.364 94.033 11.2-4.2-11.2-4.2z" fill="#c72224" stroke="#c72224"/><path d="m135.964 89.833h.4" fill="none" stroke="#c72224"/><path d="m136.364 94.033 11.2-4.2-11.2-4.2z" fill="#c72224" stroke="#c72224"/><path d="m474.963 89.833h-.4" fill="none" stroke="#c72224"/><path d="m474.563 85.633-11.2 4.2 11.2 4.2z" fill="#c72224" stroke="#c72224"/><path d="m519.963 89.833h-.4" fill="none" stroke="#c72224"/><path d="m519.563 85.633-11.2 4.2 11.2 4.2z" fill="#c72224" stroke="#c72224"/><path d="m423.058 89.833h-.4" fill="none" stroke="#c72224"/><path d="m422.658 85.633-11.2 4.2 11.2 4.2z" fill="#c72224" stroke="#c72224"/></g></svg>